<svg width="89" height="162" viewBox="0 0 89 162" fill="none" xmlns="http://www.w3.org/2000/svg">
<circle cx="63.7053" cy="25.2947" r="25.2947" fill="#FF0062"/>
<circle cx="48.7158" cy="78.6948" r="17.8" fill="#FF0062"/>
<circle cx="10.3053" cy="92.7474" r="10.3053" fill="#FF0062"/>
<path d="M23.6759 130.727H28.5963V145.841C28.5963 147.538 28.191 149.023 27.3804 150.295C26.5774 151.568 25.4524 152.561 24.0054 153.273C22.5584 153.977 20.8728 154.33 18.9486 154.33C17.0168 154.33 15.3274 153.977 13.8804 153.273C12.4334 152.561 11.3084 151.568 10.5054 150.295C9.70237 149.023 9.30085 147.538 9.30085 145.841V130.727H14.2213V145.42C14.2213 146.307 14.4145 147.095 14.8009 147.784C15.1948 148.473 15.7478 149.015 16.4599 149.409C17.1721 149.803 18.0016 150 18.9486 150C19.9031 150 20.7327 149.803 21.4372 149.409C22.1493 149.015 22.6986 148.473 23.0849 147.784C23.4789 147.095 23.6759 146.307 23.6759 145.42V130.727ZM32.3446 154V130.727H41.6628C43.3749 130.727 44.8029 130.981 45.9469 131.489C47.0908 131.996 47.9507 132.701 48.5264 133.602C49.1022 134.496 49.3901 135.527 49.3901 136.693C49.3901 137.602 49.2082 138.402 48.8446 139.091C48.481 139.773 47.981 140.333 47.3446 140.773C46.7158 141.205 45.9961 141.511 45.1855 141.693V141.92C46.0719 141.958 46.9014 142.208 47.6742 142.67C48.4545 143.133 49.087 143.78 49.5719 144.614C50.0567 145.439 50.2992 146.424 50.2992 147.568C50.2992 148.803 49.9923 149.905 49.3787 150.875C48.7726 151.837 47.8749 152.598 46.6855 153.159C45.4961 153.72 44.0302 154 42.2878 154H32.3446ZM37.2651 149.977H41.2764C42.6476 149.977 43.6476 149.716 44.2764 149.193C44.9052 148.663 45.2196 147.958 45.2196 147.08C45.2196 146.436 45.0643 145.867 44.7537 145.375C44.4431 144.883 43.9999 144.496 43.4241 144.216C42.856 143.936 42.1779 143.795 41.3901 143.795H37.2651V149.977ZM37.2651 140.466H40.9128C41.587 140.466 42.1855 140.348 42.7082 140.114C43.2385 139.871 43.6552 139.53 43.9582 139.091C44.2688 138.652 44.4241 138.125 44.4241 137.511C44.4241 136.67 44.1249 135.992 43.5264 135.477C42.9355 134.962 42.0946 134.705 41.0037 134.705H37.2651V140.466ZM58.1213 130.727V154H53.2009V130.727H58.1213ZM66.4832 130.727L71.1764 138.659H71.3582L76.0741 130.727H81.631L74.5287 142.364L81.7901 154H76.131L71.3582 146.057H71.1764L66.4037 154H60.7673L68.0514 142.364L60.9037 130.727H66.4832Z" fill="white"/>
</svg>