<svg width="390" height="899" viewBox="0 0 390 899" fill="none" xmlns="http://www.w3.org/2000/svg">
<g clip-path="url(#clip0_28_315)">
<rect width="390" height="899" fill="#100525"/>
<g clip-path="url(#clip1_28_315)" filter="url(#filter0_d_28_315)">
<circle cx="38.5" cy="44.5" r="80.5" fill="white" fill-opacity="0.05"/>
<circle cx="82" cy="189" r="43" fill="white" fill-opacity="0.05"/>
<circle cx="20.5" cy="273.5" r="20.5" fill="white" fill-opacity="0.05"/>
<circle cx="216.087" cy="861.588" r="80.5" transform="rotate(-135 216.087 861.588)" fill="white" fill-opacity="0.05"/>
<circle cx="287.505" cy="728.652" r="43" transform="rotate(-135 287.505 728.652)" fill="white" fill-opacity="0.05"/>
<circle cx="390.742" cy="712.388" r="20.5" transform="rotate(-135 390.742 712.388)" fill="white" fill-opacity="0.05"/>
<circle cx="213.705" cy="335.295" r="25.2947" fill="#FF0062"/>
<circle cx="198.716" cy="388.695" r="17.8" fill="#FF0062"/>
<circle cx="160.305" cy="402.747" r="10.3053" fill="#FF0062"/>
<path d="M173.676 440.727H178.596V455.841C178.596 457.538 178.191 459.023 177.38 460.295C176.577 461.568 175.452 462.561 174.005 463.273C172.558 463.977 170.873 464.33 168.949 464.33C167.017 464.33 165.327 463.977 163.88 463.273C162.433 462.561 161.308 461.568 160.505 460.295C159.702 459.023 159.301 457.538 159.301 455.841V440.727H164.221V455.42C164.221 456.307 164.414 457.095 164.801 457.784C165.195 458.473 165.748 459.015 166.46 459.409C167.172 459.803 168.002 460 168.949 460C169.903 460 170.733 459.803 171.437 459.409C172.149 459.015 172.699 458.473 173.085 457.784C173.479 457.095 173.676 456.307 173.676 455.42V440.727ZM182.345 464V440.727H191.663C193.375 440.727 194.803 440.981 195.947 441.489C197.091 441.996 197.951 442.701 198.526 443.602C199.102 444.496 199.39 445.527 199.39 446.693C199.39 447.602 199.208 448.402 198.845 449.091C198.481 449.773 197.981 450.333 197.345 450.773C196.716 451.205 195.996 451.511 195.186 451.693V451.92C196.072 451.958 196.901 452.208 197.674 452.67C198.454 453.133 199.087 453.78 199.572 454.614C200.057 455.439 200.299 456.424 200.299 457.568C200.299 458.803 199.992 459.905 199.379 460.875C198.773 461.837 197.875 462.598 196.686 463.159C195.496 463.72 194.03 464 192.288 464H182.345ZM187.265 459.977H191.276C192.648 459.977 193.648 459.716 194.276 459.193C194.905 458.663 195.22 457.958 195.22 457.08C195.22 456.436 195.064 455.867 194.754 455.375C194.443 454.883 194 454.496 193.424 454.216C192.856 453.936 192.178 453.795 191.39 453.795H187.265V459.977ZM187.265 450.466H190.913C191.587 450.466 192.186 450.348 192.708 450.114C193.239 449.871 193.655 449.53 193.958 449.091C194.269 448.652 194.424 448.125 194.424 447.511C194.424 446.67 194.125 445.992 193.526 445.477C192.936 444.962 192.095 444.705 191.004 444.705H187.265V450.466ZM208.121 440.727V464H203.201V440.727H208.121ZM216.483 440.727L221.176 448.659H221.358L226.074 440.727H231.631L224.529 452.364L231.79 464H226.131L221.358 456.057H221.176L216.404 464H210.767L218.051 452.364L210.904 440.727H216.483Z" fill="white"/>
</g>
</g>
<defs>
<filter id="filter0_d_28_315" x="-4" y="0" width="398" height="907" filterUnits="userSpaceOnUse" color-interpolation-filters="sRGB">
<feFlood flood-opacity="0" result="BackgroundImageFix"/>
<feColorMatrix in="SourceAlpha" type="matrix" values="0 0 0 0 0 0 0 0 0 0 0 0 0 0 0 0 0 0 127 0" result="hardAlpha"/>
<feOffset dy="4"/>
<feGaussianBlur stdDeviation="2"/>
<feComposite in2="hardAlpha" operator="out"/>
<feColorMatrix type="matrix" values="0 0 0 0 0 0 0 0 0 0 0 0 0 0 0 0 0 0 0.25 0"/>
<feBlend mode="normal" in2="BackgroundImageFix" result="effect1_dropShadow_28_315"/>
<feBlend mode="normal" in="SourceGraphic" in2="effect1_dropShadow_28_315" result="shape"/>
</filter>
<clipPath id="clip0_28_315">
<rect width="390" height="899" fill="white"/>
</clipPath>
<clipPath id="clip1_28_315">
<rect width="390" height="899" fill="white"/>
</clipPath>
</defs>
</svg>
